<svg xmlns="http://www.w3.org/2000/svg" xmlns:xlink="http://www.w3.org/1999/xlink" viewBox="0 0 56.32 60"><defs><style>.cls-1{fill:none;}.cls-2{clip-path:url(#clip-path);}.cls-3{fill:#110a01;}</style><clipPath id="clip-path" transform="translate(-1.84 0)"><rect class="cls-1" width="60" height="60"/></clipPath></defs><g id="Layer_2" data-name="Layer 2"><g id="Layer_1-2" data-name="Layer 1"><g class="cls-2"><path class="cls-3" d="M58.14,51l-.57-10.59a4.4,4.4,0,0,0-4-4l-10.59-.56c-6-.32-7.54,2.86-3.43,7.11A14.89,14.89,0,0,1,31.85,45a15,15,0,1,1,0-30,14.82,14.82,0,0,1,7.7,2.14,4,4,0,0,0,4.85-.61l5.07-5.07a4,4,0,0,0-.53-6.11A29.81,29.81,0,0,0,30.55,0,30,30,0,1,0,50.28,53.65l.56.56C55.18,58.55,58.47,57.09,58.14,51Z" transform="translate(-1.84 0)"/></g></g></g></svg>