<svg xmlns="http://www.w3.org/2000/svg" xmlns:xlink="http://www.w3.org/1999/xlink" viewBox="0 0 52.99 59.7"><defs><style>.cls-1{fill:none;}.cls-2{clip-path:url(#clip-path);}.cls-3{fill:#110a01;}</style><clipPath id="clip-path" transform="translate(-3.24 -0.27)"><rect class="cls-1" width="60" height="60"/></clipPath></defs><g id="Layer_2" data-name="Layer 2"><g id="Layer_1-2" data-name="Layer 1"><g class="cls-2"><g id="Mask_Group_3" data-name="Mask Group 3"><path id="Subtraction_3" data-name="Subtraction 3" class="cls-3" d="M3.24,42.07V18.18a6,6,0,0,1,3-5.19L26.72,1.09a6,6,0,0,1,6,0L53.25,13a6,6,0,0,1,3,5.19V42.07a6,6,0,0,1-3,5.19L32.75,59.17a6,6,0,0,1-6,0L6.22,47.26A6,6,0,0,1,3.24,42.07ZM39.65,30.44a9.92,9.92,0,1,0-9.92,10A9.92,9.92,0,0,0,39.65,30.44Z" transform="translate(-3.24 -0.27)"/></g></g></g></g></svg>