<svg xmlns="http://www.w3.org/2000/svg" xmlns:xlink="http://www.w3.org/1999/xlink" viewBox="0 0 60 60"><defs><style>.cls-1{fill:none;}.cls-2{clip-path:url(#clip-path);}.cls-3{fill:#110a01;}</style><clipPath id="clip-path" transform="translate(0 0)"><rect class="cls-1" width="60" height="60"/></clipPath></defs><g id="Layer_2" data-name="Layer 2"><g id="Layer_1-2" data-name="Layer 1"><g class="cls-2"><g id="Mask_Group_9" data-name="Mask Group 9"><path class="cls-3" d="M42.67,30,58.9,13.78a3.78,3.78,0,0,0,0-5.34L51.56,1.1a3.78,3.78,0,0,0-5.34,0L30,17.33,13.78,1.1a3.78,3.78,0,0,0-5.34,0L1.1,8.44a3.78,3.78,0,0,0,0,5.34L17.33,30,1.1,46.22a3.78,3.78,0,0,0,0,5.34L8.44,58.9a3.78,3.78,0,0,0,5.34,0L30,42.67,46.22,58.9a3.78,3.78,0,0,0,5.34,0l7.34-7.34a3.78,3.78,0,0,0,0-5.34Z" transform="translate(0 0)"/></g></g></g></g></svg>