<svg xmlns="http://www.w3.org/2000/svg" xmlns:xlink="http://www.w3.org/1999/xlink" viewBox="0 0 60 60"><defs><style>.cls-1{fill:none;}.cls-2{clip-path:url(#clip-path);}.cls-3{fill:#110a01;}</style><clipPath id="clip-path" transform="translate(0)"><rect class="cls-1" width="60" height="60"/></clipPath></defs><g id="Layer_2" data-name="Layer 2"><g id="Layer_1-2" data-name="Layer 1"><g class="cls-2"><g id="Mask_Group_4" data-name="Mask Group 4"><g id="Group_59" data-name="Group 59"><path id="Subtraction_4" data-name="Subtraction 4" class="cls-3" d="M47,20h7a6,6,0,0,1,6,6V54a6,6,0,0,1-6,6H47a6,6,0,0,1-6-6V26A6,6,0,0,1,47,20Zm3.5,34.5a1,1,0,0,0,1-1v-27a1,1,0,0,0-2,0v27A1,1,0,0,0,50.5,54.5Z" transform="translate(0)"/><path id="Subtraction_6" data-name="Subtraction 6" class="cls-3" d="M6,40h7a6,6,0,0,1,6,6v8a6,6,0,0,1-6,6H6a6,6,0,0,1-6-6V46A6,6,0,0,1,6,40ZM9.5,54.5a1,1,0,0,0,1-1v-7a1,1,0,0,0-2,0v7A1,1,0,0,0,9.5,54.5Z" transform="translate(0)"/><path id="Subtraction_5" data-name="Subtraction 5" class="cls-3" d="M26,0h7a6,6,0,0,1,6,6V54a6,6,0,0,1-6,6H26a6,6,0,0,1-6-6V6A6,6,0,0,1,26,0Zm3.5,54.5a1,1,0,0,0,1-1V6.5a1,1,0,0,0-2,0v47A1,1,0,0,0,29.5,54.5Z" transform="translate(0)"/></g></g></g></g></g></svg>